#!OML:ASF E:\Mandelcareful walks\Project 1\Capture day 1\Session 1\Subject1.ASF
:FULLY-SPECIFIED
:DEGREES
942
root 3.26943 16.8933 0.189289 -156.333 -86.2155 163.314
lowerback 4.7962 1.01274 1.9669
upperback 1.25833 1.43178 0.837825
thorax -1.36779 0.699602 -0.326674
lowerneck -32.2296 1.98284 -0.366395
upperneck 21.3041 4.11932 -4.1395
head 12.4308 1.15412 -0.748716
rclavicle -8.05078e-015 -3.18055e-015
rhumerus -19.4305 -40.574 -13.2579
rradius 31.3172
rwrist -26.1869
rhand -10.1416 -30.4578
rfingers 7.12502
rthumb 15.8473 -59.8292
lclavicle -8.05078e-015 -3.18055e-015
lhumerus -18.2235 32.3219 20.4978
lradius 25.7707
lwrist 9.33079
lhand -25.9892 -10.9882
lfingers 7.12502
lthumb 0.556182 18.9908
rfemur -13.5597 -3.1129 15.6421
rtibia 22.0556
rfoot -18.1597 -11.1295
rtoes 9.884
lfemur -23.0956 10.6964 -16.1039
ltibia 43.7958
lfoot -20.8312 3.20913
ltoes 1.29485
943
root 3.29965 16.8981 0.198918 -154.586 -85.9193 161.418
lowerback 5.60576 1.17657 1.67659
upperback 1.54116 1.64146 0.790994
thorax -1.53157 0.801419 -0.239051
lowerneck -32.9222 1.85986 -0.527484
upperneck 21.2941 4.0304 -4.11913
head 12.5427 1.09369 -0.731018
rclavicle 1.0635e-014 1.51076e-014
rhumerus -19.4443 -40.3396 -13.6644
rradius 31.7477
rwrist -26.5511
rhand -12.5129 -32.4924
rfingers 7.12502
rthumb 13.5627 -62.0306
lclavicle 1.0635e-014 1.51076e-014
lhumerus -17.6906 31.899 21.2689
lradius 25.9256
lwrist 9.75234
lhand -26.3649 -10.9896
lfingers 7.12502
lthumb 0.193308 18.99
rfemur -13.6002 -2.9638 15.3741
rtibia 22.055
rfoot -18.1934 -11.3213
rtoes 8.90808
lfemur -23.2446 10.922 -15.995
ltibia 44.0583
lfoot -20.5863 4.94447
ltoes 2.20438
944
root 3.32506 16.9081 0.212261 -155.744 -85.7532 162.467
lowerback 6.10154 1.25089 1.60523
upperback 1.70031 1.73907 0.789075
thorax -1.64463 0.847527 -0.217327
lowerneck -32.5124 1.89781 -0.203188
upperneck 20.8568 3.9836 -4.41895
head 12.3116 1.07309 -0.907024
rclavicle -5.36719e-015 3.97569e-015
rhumerus -19.3279 -40.0178 -14.237
rradius 32.0654
rwrist -26.6051
rhand -10.0065 -30.3125
rfingers 7.12502
rthumb 15.9774 -59.6736
lclavicle -5.36719e-015 3.97569e-015
lhumerus -17.6004 30.3626 21.7165
lradius 26.3761
lwrist 11.2265
lhand -26.8067 -10.9031
lfingers 7.12502
lthumb -0.233355 19.0766
rfemur -13.7245 -2.99926 15.3752
rtibia 22.2097
rfoot -18.3249 -11.3206
rtoes 8.89935
lfemur -23.379 11.0921 -15.6242
ltibia 44.2554
lfoot -20.3971 6.37933
ltoes 3.77036
945
root 3.35384 16.9067 0.229796 -156.958 -85.6331 163.65
lowerback 6.33661 1.26966 1.61513
upperback 2.07464 1.75347 0.811813
thorax -1.39042 0.853564 -0.200708
lowerneck -32.6315 1.92092 -0.243174
upperneck 20.5467 3.99015 -4.31676
head 12.2053 1.09362 -0.858144
rclavicle -4.77083e-015 -1.27222e-014
rhumerus -18.6673 -40.1207 -15.1198
rradius 32.1861
rwrist -26.6371
rhand -10.773 -30.0736
rfingers 7.12502
rthumb 15.2392 -59.4923
lclavicle -4.77083e-015 -1.27222e-014
lhumerus -17.5553 29.6781 22.0798
lradius 26.7942
lwrist 12.0173
lhand -26.9317 -10.9837
lfingers 7.12502
lthumb -0.354158 18.9957
rfemur -13.9658 -3.14795 15.3905
rtibia 22.4575
rfoot -18.5587 -11.0855
rtoes 9.03531
lfemur -23.5262 11.243 -15.2688
ltibia 44.3847
lfoot -19.9746 7.66918
ltoes 6.73578
946
root 3.38144 16.8951 0.250189 -155.857 -85.4544 162.552
lowerback 6.81616 1.25054 1.37806
upperback 2.24844 1.71317 0.815594
thorax -1.48581 0.830106 -0.070042
lowerneck -32.8427 1.98798 -0.385297
upperneck 20.5109 4.09979 -4.13234
head 12.2211 1.15523 -0.742477
rclavicle -1.11319e-014 4.77083e-015
rhumerus -18.0745 -39.1972 -16.0525
rradius 32.5645
rwrist -27.2879
rhand -12.4201 -30.7896
rfingers 7.12502
rthumb 13.6521 -60.3219
lclavicle -1.11319e-014 4.77083e-015
lhumerus -17.9021 28.7154 22.2911
lradius 27.4048
lwrist 12.6574
lhand -27.0104 -10.7737
lfingers 7.12502
lthumb -0.430137 19.2056
rfemur -14.2861 -3.53966 15.1807
rtibia 22.7563
rfoot -18.715 -10.6807
rtoes 9.30094
lfemur -23.6547 11.4734 -15.1837
ltibia 44.4603
lfoot -19.1083 9.16122
ltoes 9.42999
947
root 3.40301 16.889 0.268934 -154.856 -85.2301 161.556
lowerback 7.86449 1.29401 1.16393
upperback 1.93946 1.78 0.729683
thorax -2.38948 0.858409 -0.074047
lowerneck -32.5234 1.9903 -0.392791
upperneck 20.6444 4.06494 -3.97365
head 12.2124 1.16527 -0.68785
rclavicle -1.19271e-014 7.15625e-015
rhumerus -18.2435 -37.8484 -16.4754
rradius 32.9838
rwrist -27.3468
rhand -11.3618 -30.1141
rfingers 7.12502
rthumb 14.6719 -59.5749
lclavicle -1.19271e-014 7.15625e-015
lhumerus -18.414 26.3713 22.4635
lradius 28.3036
lwrist 14.0153
lhand -27.3121 -10.0305
lfingers 7.12502
lthumb -0.721557 19.948
rfemur -14.7042 -4.00769 14.9747
rtibia 23.1798
rfoot -18.7094 -10.3264
rtoes 9.2003
lfemur -23.7603 11.6711 -15.0865
ltibia 44.4915
lfoot -18.3527 10.7332
ltoes 10.4312
948
root 3.42209 16.8873 0.28646 -154.243 -85.0497 161.006
lowerback 8.03213 1.31905 0.926748
upperback 2.24577 1.78311 0.725284
thorax -2.17346 0.858527 0.0545547
lowerneck -32.6542 2.05096 -0.37399
upperneck 20.3516 4.1402 -4.02459
head 12.1231 1.19726 -0.694849
rclavicle -1.68967e-014 -1.59028e-015
rhumerus -17.6222 -38.1885 -17.1305
rradius 32.8716
rwrist -26.2109
rhand -11.0666 -30.179
rfingers 7.12502
rthumb 14.9563 -59.6189
lclavicle -1.68967e-014 -1.59028e-015
lhumerus -18.0068 27.4463 22.6628
lradius 27.8587
lwrist 12.3183
lhand -26.7938 -10.818
lfingers 7.12502
lthumb -0.220962 19.1616
rfemur -15.2473 -4.49572 14.8362
rtibia 23.7125
rfoot -18.6595 -10.0382
rtoes 8.39583
lfemur -23.9193 11.7997 -14.9146
ltibia 44.485
lfoot -17.9586 12.0526
ltoes 10.6348
